<svg width="76" height="83" viewBox="0 0 76 83" fill="none" xmlns="http://www.w3.org/2000/svg">
    <path d="M17.9995 58.0714C9.16296 58.0714 1.99951 50.908 1.99951 42.0714C1.99951 34.4432 7.33777 28.0618 14.4823 26.4592C14.1663 25.0472 13.9995 23.5788 13.9995 22.0714C13.9995 11.0257 22.9538 2.07141 33.9995 2.07141C43.6767 2.07141 51.7487 8.94441 53.6002 18.0753C53.733 18.0727 53.8661 18.0714 53.9995 18.0714C65.0452 18.0714 73.9995 27.0257 73.9995 38.0714C73.9995 47.7473 67.1285 55.8183 57.9995 57.6713M49.9995 46.0714L37.9995 34.0714M37.9995 34.0714L25.9995 46.0714M37.9995 34.0714L37.9995 82.0714" stroke="#111827" stroke-width="4" stroke-linecap="round" stroke-linejoin="round"/>
</svg>
