<svg xmlns="http://www.w3.org/2000/svg" viewBox="0 0 325.98 237.38"><defs><style>.cls-1{fill:#cccccb;}</style></defs><title>Camera</title><g id="Layer_2" data-name="Layer 2"><g id="CAMERA_BUTTONS_SET_BY_RedKoala" data-name="CAMERA BUTTONS SET BY RedKoala"><path class="cls-1" d="M163,66.66a68.68,68.68,0,0,0-68.6,68.61s0,.08,0,.12h0s0,.06,0,.09a68.44,68.44,0,0,0,22.53,50.58l.08.07q1.18,1.07,2.41,2.08l.15.11q1.2,1,2.45,1.92l.23.16c.81.6,1.62,1.18,2.45,1.74l.43.28c.77.52,1.56,1,2.35,1.51l.55.32c.76.45,1.53.91,2.31,1.33l.71.37c.74.39,1.48.78,2.24,1.15l.8.36c.74.34,1.48.69,2.23,1l1,.4c.7.28,1.39.57,2.1.83.37.14.75.25,1.13.38.68.24,1.36.48,2.06.7.4.13.82.23,1.22.35.67.2,1.34.4,2,.58.48.12,1,.22,1.44.33s1.24.3,1.87.43,1.05.19,1.57.28,1.19.23,1.8.32,1.13.14,1.69.22,1.16.16,1.74.22,1.38.11,2.07.16c.47,0,.93.08,1.41.11q1.75.09,3.52.09t3.52-.09c.46,0,.92-.07,1.38-.11.7,0,1.4-.09,2.1-.16s1.12-.14,1.68-.21,1.17-.13,1.75-.22,1.18-.21,1.77-.32,1.07-.18,1.6-.29,1.23-.28,1.84-.43,1-.22,1.47-.34c.66-.17,1.31-.37,2-.56.43-.12.86-.23,1.28-.36.67-.21,1.34-.45,2-.68.39-.14.79-.26,1.18-.4.69-.25,1.37-.53,2-.81l1.06-.42c.72-.31,1.43-.64,2.14-1l.9-.41c.71-.34,1.41-.71,2.1-1.08l.85-.44c.76-.41,1.5-.85,2.24-1.29l.63-.36c.77-.47,1.52-1,2.26-1.45l.52-.33c.79-.53,1.55-1.08,2.31-1.65l.37-.26c.78-.59,1.55-1.2,2.31-1.81l.28-.22c.78-.64,1.53-1.3,2.28-2l.21-.18c.76-.69,1.5-1.4,2.23-2.12l.16-.15q1.14-1.14,2.23-2.33l0,0q1.1-1.2,2.13-2.46l0,0a68.29,68.29,0,0,0,15.63-40v0c.06-1.12.09-2.25.09-3.39,0,0,0-.09,0-.13h0s0-.08,0-.12A68.68,68.68,0,0,0,163,66.66Zm0,20a48.67,48.67,0,0,1,48.61,48.62c0,.06,0,.13,0,.19q0,1.22-.07,2.42h0A48.43,48.43,0,0,1,198.92,168l0,0q-.77.84-1.58,1.65l-.08.08q-.79.78-1.6,1.53l-.12.11c-.54.48-1.08,1-1.64,1.42l-.2.16c-.54.44-1.08.87-1.64,1.28l-.26.19c-.54.4-1.09.79-1.64,1.17l-.35.23c-.53.35-1.07.7-1.62,1l-.49.28c-.51.3-1,.6-1.54.89l-.57.29c-.5.27-1,.53-1.52.78l-.61.28c-.51.24-1,.48-1.54.7l-.76.3c-.48.19-1,.39-1.45.57l-.88.3c-.46.16-.91.32-1.37.46l-1,.3c-.42.12-.84.25-1.27.36l-1.12.26c-.41.1-.82.2-1.23.28l-1.14.2c-.42.08-.83.16-1.25.22s-.83.11-1.24.16-.79.11-1.19.15-1,.08-1.48.11l-1,.07q-1.24.06-2.5.06t-2.5-.06l-1-.08c-.48,0-1-.06-1.44-.11s-.81-.1-1.21-.15-.82-.09-1.22-.16-.82-.15-1.23-.22l-1.16-.21c-.41-.08-.81-.19-1.21-.28l-1.13-.26c-.43-.11-.84-.24-1.27-.36l-1-.3c-.46-.14-.92-.31-1.37-.46l-.88-.3c-.49-.18-1-.38-1.45-.57l-.76-.3c-.52-.22-1-.46-1.54-.7l-.61-.28c-.52-.25-1-.51-1.52-.78l-.57-.29c-.52-.28-1-.59-1.54-.89l-.49-.28c-.55-.33-1.08-.68-1.62-1l-.35-.22c-.56-.38-1.1-.77-1.64-1.17l-.26-.18c-.56-.41-1.1-.85-1.64-1.28l-.2-.16c-.56-.46-1.1-.93-1.64-1.42l-.12-.11q-.82-.74-1.6-1.53l-.08-.08q-.8-.79-1.55-1.63l-.06-.06a48.43,48.43,0,0,1-12.61-30.1h0q-.06-1.2-.07-2.42c0-.06,0-.13,0-.19A48.67,48.67,0,0,1,163,86.65Z"/><path class="cls-1" d="M288.6,33.15h-60l-12.49-22.9A19.64,19.64,0,0,0,198.83,0H127.15a19.65,19.65,0,0,0-17.26,10.25L97.4,33.15h-60A37.43,37.43,0,0,0,0,70.53V200a37.43,37.43,0,0,0,37.39,37.39H288.6A37.43,37.43,0,0,0,326,200V70.53A37.43,37.43,0,0,0,288.6,33.15ZM306,200a17.42,17.42,0,0,1-17.4,17.4H37.39A17.42,17.42,0,0,1,20,200V70.53a17.42,17.42,0,0,1,17.4-17.4h71.89L127.34,20h71.29l18.07,33.15H288.6A17.42,17.42,0,0,1,306,70.53V200Z"/><rect class="cls-1" x="250.92" y="68.82" width="38.36" height="27.86" rx="3.43" ry="3.43"/></g></g></svg>