<svg xmlns="http://www.w3.org/2000/svg" xmlns:xlink="http://www.w3.org/1999/xlink" fill="none" version="1.1" width="24" height="20" viewBox="0 0 24 20"><g style="mix-blend-mode:passthrough"><path d="M8.16795,0.4453C8.35342,0.167101,8.66565,0,9,0C9,0,15,0,15,0C15.3344,0,15.6466,0.167101,15.8321,0.4453C15.8321,0.4453,17.5352,3,17.5352,3C17.5352,3,21,3,21,3C21.7957,3,22.5587,3.31607,23.1213,3.87868C23.6839,4.44129,24,5.20435,24,6C24,6,24,17,24,17C24,17.7957,23.6839,18.5587,23.1213,19.1213C22.5587,19.6839,21.7957,20,21,20C21,20,3,20,3,20C2.20435,20,1.44129,19.6839,0.87868,19.1213C0.316071,18.5587,0,17.7957,0,17C0,17,0,6,0,6C0,5.20435,0.316071,4.44129,0.87868,3.87868C1.44129,3.31607,2.20435,3,3,3C3,3,6.46482,3,6.46482,3C6.46482,3,8.16795,0.4453,8.16795,0.4453C8.16795,0.4453,8.16795,0.4453,8.16795,0.4453ZM9.53518,2C9.53518,2,7.83205,4.5547,7.83205,4.5547C7.64658,4.8329,7.33435,5,7,5C7,5,3,5,3,5C2.73478,5,2.48043,5.10536,2.29289,5.29289C2.10536,5.48043,2,5.73478,2,6C2,6,2,17,2,17C2,17.2652,2.10536,17.5196,2.29289,17.7071C2.48043,17.8946,2.73478,18,3,18C3,18,21,18,21,18C21.2652,18,21.5196,17.8946,21.7071,17.7071C21.8946,17.5196,22,17.2652,22,17C22,17,22,6,22,6C22,5.73478,21.8946,5.48043,21.7071,5.29289C21.5196,5.10536,21.2652,5,21,5C21,5,17,5,17,5C16.6656,5,16.3534,4.8329,16.1679,4.5547C16.1679,4.5547,14.4648,2,14.4648,2C14.4648,2,9.53518,2,9.53518,2C9.53518,2,9.53518,2,9.53518,2ZM12,8C10.3431,8,9,9.34315,9,11C9,12.6569,10.3431,14,12,14C13.6569,14,15,12.6569,15,11C15,9.34315,13.6569,8,12,8C12,8,12,8,12,8ZM7,11C7,8.23858,9.23858,6,12,6C14.7614,6,17,8.23858,17,11C17,13.7614,14.7614,16,12,16C9.23858,16,7,13.7614,7,11C7,11,7,11,7,11Z" fill-rule="evenodd" fill="#333333" fill-opacity="1"/></g></svg>