<svg xmlns="http://www.w3.org/2000/svg" xmlns:xlink="http://www.w3.org/1999/xlink" fill="none" version="1.1" width="15" height="13.875" viewBox="0 0 15 13.875"><g><path d="M14.25,1.5L0.75,1.5L0.75,0.75L1.3196970000000001,0.262204L6.7197,6.56887Q6.80696,6.67079,6.85348,6.79664Q6.9,6.92249,6.9,7.05667L6.9,11.7917L6.15,11.7917L6.48208,11.1192L9.18209,12.4525L8.85,13.125L8.1,13.125L8.1,7.05667Q8.1,6.92249,8.146519999999999,6.79664Q8.19304,6.67079,8.2803,6.56887L13.6803,0.262204L14.25,0.75L14.25,1.5ZM14.25,0Q14.3842,0,14.51,0.04651799999999995Q14.6359,0.09303700000000004,14.7378,0.180303Q14.7939,0.22834600000000005,14.8396,0.286413Q14.8852,0.344481,14.9187,0.41034Q14.9521,0.476199,14.9721,0.547319Q14.9921,0.618439,14.9978,0.6920869Q15.0035,0.7657349,14.9947,0.8390805Q14.9859,0.912426,14.963,0.9826509999999999Q14.9401,1.052876,14.9039,1.117281Q14.8677,1.181686,14.8197,1.237796L9.4197,7.54446L8.85,7.05667L9.6,7.05667L9.6,13.125Q9.6,13.3001,9.52247,13.4571Q9.48977,13.5233,9.44476,13.5819Q9.39976,13.6405,9.3442,13.6891Q9.28864,13.7378,9.22464,13.7747Q9.16065,13.8116,9.09069,13.8353Q9.02073,13.859,8.94749,13.8686Q8.87424,13.8782,8.80054,13.8734Q8.72683,13.8685,8.65549,13.8493Q8.584150000000001,13.8302,8.51792,13.7975L5.81791,12.4641Q5.72383,12.4177,5.6461,12.3472Q5.56838,12.2767,5.51299,12.1875Q5.4576,12.0984,5.4288,11.9975Q5.4,11.8966,5.4,11.7917L5.4,7.05667L6.15,7.05667L5.5803,7.54446L0.180303,1.237796Q0.09303700000000004,1.135878,0.04651799999999995,1.0100259999999999Q0,0.884174,0,0.75Q0,0.6761315,0.014410999999999952,0.603682Q0.028822000000000014,0.5312330000000001,0.057089999999999974,0.462987Q0.08535899999999996,0.394742,0.126398,0.333322Q0.16743699999999995,0.271903,0.21967000000000003,0.21967000000000003Q0.271903,0.16743699999999995,0.333322,0.126398Q0.394742,0.08535899999999996,0.462987,0.057089999999999974Q0.5312330000000001,0.028822000000000014,0.603682,0.014410999999999952Q0.6761315,0,0.75,0L14.25,0Z" fill="#333333" fill-opacity="1"/></g></svg>