<svg xmlns="http://www.w3.org/2000/svg" xmlns:xlink="http://www.w3.org/1999/xlink" fill="none" version="1.1" width="15" height="10.833333015441895" viewBox="0 0 15 10.833333015441895"><g style="mix-blend-mode:passthrough"><path d="M14.7559,0.244077C15.0813,0.569514,15.0813,1.09715,14.7559,1.42259C14.7559,1.42259,5.58926,10.5892,5.58926,10.5892C5.26382,10.9147,4.73618,10.9147,4.41074,10.5892C4.41074,10.5892,0.244077,6.42259,0.244077,6.42259C-0.0813592,6.09715,-0.0813592,5.56952,0.244077,5.24407C0.569514,4.91864,1.09715,4.91864,1.42259,5.24407C1.42259,5.24407,5,8.8215,5,8.8215C5,8.8215,13.5774,0.244077,13.5774,0.244077C13.9028,-0.0813592,14.4305,-0.0813592,14.7559,0.244077C14.7559,0.244077,14.7559,0.244077,14.7559,0.244077Z" fill-rule="evenodd" fill="#FEFEFE" fill-opacity="1"/></g></svg>