<svg width="35" height="34" viewBox="0 0 35 34" fill="none" xmlns="http://www.w3.org/2000/svg">
<path d="M31.354 33.2143L19.924 21.7823C14.8393 25.3972 7.83284 24.513 3.80571 19.7481C-0.221422 14.9833 0.0742787 7.92746 4.48596 3.51628C8.89648 -0.896824 15.953 -1.1938 20.7187 2.83311C25.4845 6.86003 26.3692 13.8672 22.754 18.9523L34.184 30.3843L31.356 33.2123L31.354 33.2143ZM12.97 4.00026C9.17737 3.9994 5.90534 6.66164 5.13491 10.3752C4.36448 14.0887 6.30738 17.8328 9.78732 19.3408C13.2673 20.8487 17.3278 19.7059 19.5104 16.6044C21.6931 13.5028 21.3981 9.29492 18.804 6.52829L20.014 7.72829L18.65 6.36829L18.626 6.34429C17.1295 4.83864 15.0928 3.99454 12.97 4.00026Z" fill="#777777"/>
</svg>
