<svg xmlns="http://www.w3.org/2000/svg" xmlns:xlink="http://www.w3.org/1999/xlink" fill="none" version="1.1" width="1440" height="555" viewBox="0 0 1440 555"><defs><linearGradient x1="0.8648862242698669" y1="0.8310357928276062" x2="0" y2="0.5" id="master_svg0_193_9265"><stop offset="0%" stop-color="#DCDCDC" stop-opacity="0.38999998569488525"/><stop offset="100.00002384185791%" stop-color="#EAEAEA" stop-opacity="0.3499999940395355"/></linearGradient></defs><g style="mix-blend-mode:passthrough"><g><g style="mix-blend-mode:passthrough"><path d="M1580.0100244140626,461.251Q1580.0870244140624,461.476,1580.1510244140625,461.705Q1580.2140244140626,461.934,1580.2640244140625,462.166Q1580.3140244140625,462.398,1580.3500244140625,462.633Q1580.3860244140624,462.868,1580.4080244140625,463.105Q1580.4300244140625,463.342,1580.4370244140625,463.579Q1580.4450244140626,463.817,1580.4390244140625,464.054Q1580.4330244140624,464.292,1580.4120244140624,464.529Q1580.3920244140625,464.765,1580.3580244140626,465.001Q1580.3230244140625,465.236,1580.2750244140625,465.469Q1580.2270244140625,465.701,1580.1650244140624,465.931Q1580.1030244140625,466.16,1580.0270244140625,466.385Q1579.9520244140626,466.611,1579.8630244140625,466.831Q1579.7740244140625,467.052,1579.6720244140624,467.267Q1579.5710244140625,467.481,1579.4560244140625,467.69Q1579.3420244140625,467.898,1579.2160244140625,468.099Q1579.0890244140626,468.301,1578.9510244140624,468.494Q1578.8130244140625,468.687,1578.6630244140624,468.872Q1578.5140244140625,469.057,1578.3540244140625,469.233Q1578.1940244140624,469.408,1578.0230244140625,469.574Q1577.8530244140625,469.74,1577.6730244140626,469.895Q1577.4940244140626,470.051,1577.3050244140625,470.195Q1577.1160244140624,470.34,1576.9190244140625,470.473Q1576.7220244140626,470.606,1576.5180244140624,470.727Q1576.3130244140625,470.848,1576.1020244140625,470.957Q1575.8910244140625,471.065,1575.6730244140626,471.161Q1575.4560244140625,471.258,1575.2330244140626,471.34Q1575.0100244140626,471.423,1574.7830244140625,471.493Q1574.5560244140624,471.562,1574.3250244140625,471.618Q1574.0940244140625,471.674,1573.8600244140625,471.716Q1573.6260244140626,471.759,1573.3900244140625,471.787Q1573.1540244140624,471.815,1572.9170244140626,471.829Q1572.6790244140625,471.843,1572.4420244140624,471.843L1313.3683244140625,471.843Q1313.1306244140626,471.843,1312.8933244140626,471.829Q1312.6561244140626,471.815,1312.4201244140625,471.787Q1312.1841244140626,471.759,1311.9502244140624,471.716Q1311.7163244140625,471.674,1311.4853244140625,471.618Q1311.2543244140625,471.562,1311.0270244140625,471.493Q1310.7998244140624,471.423,1310.5770244140624,471.34Q1310.3543244140626,471.258,1310.1369244140626,471.162Q1309.9194244140624,471.065,1309.7081244140625,470.957Q1309.4968244140625,470.848,1309.2923244140625,470.727Q1309.0878244140624,470.606,1308.8908244140625,470.473Q1308.6938244140624,470.34,1308.5051244140625,470.195Q1308.3164244140626,470.051,1308.1366244140625,469.895Q1307.9568244140626,469.74,1307.7865244140626,469.574Q1307.6163244140625,469.408,1307.4562244140625,469.233Q1307.2960244140625,469.057,1307.1466244140624,468.872Q1306.9972244140624,468.687,1306.8590244140626,468.494Q1306.7209244140624,468.301,1306.5944244140626,468.099Q1306.4680244140625,467.898,1306.3537244140625,467.69Q1306.2394244140626,467.481,1306.1377244140624,467.267Q1306.0360244140625,467.052,1305.9472244140625,466.831Q1305.8585244140625,466.611,1305.7829244140626,466.385Q1305.7074244140624,466.16,1305.6454244140625,465.931Q1305.5834244140624,465.701,1305.5351244140625,465.468Q1305.4868244140625,465.236,1305.4524244140625,465.001Q1305.4181244140625,464.765,1305.3977244140624,464.529Q1305.3773244140625,464.292,1305.3711244140625,464.054Q1305.3648244140625,463.817,1305.3726244140626,463.579Q1305.3805244140624,463.342,1305.4024244140626,463.105Q1305.4243244140625,462.868,1305.4603244140626,462.633Q1305.4962244140625,462.398,1305.5461244140624,462.166Q1305.5959244140624,461.934,1305.6594244140624,461.705Q1305.7230244140626,461.476,1305.8000244140626,461.251L1435.3370244140624,83.0941Q1435.4370244140625,82.8005,1435.5600244140626,82.5156Q1435.6830244140624,82.2306,1435.8280244140624,81.95609999999999Q1435.9730244140626,81.6816,1436.1380244140626,81.419Q1436.3040244140625,81.1565,1436.4890244140624,80.9077Q1436.6750244140626,80.6588,1436.8790244140625,80.425Q1437.0830244140625,80.1912,1437.3050244140625,79.9739Q1437.5260244140625,79.7567,1437.7640244140625,79.5572Q1438.0020244140626,79.3578,1438.2540244140625,79.1774Q1438.5070244140625,78.9969,1438.7720244140626,78.8366Q1439.0380244140624,78.6763,1439.3160244140624,78.5371Q1439.5930244140625,78.3978,1439.8800244140625,78.2805Q1440.1680244140625,78.1631,1440.4630244140626,78.0684Q1440.7590244140624,77.97370000000001,1441.0610244140626,77.9021Q1441.3630244140625,77.8306,1441.6690244140625,77.7826Q1441.9760244140625,77.7347,1442.2850244140625,77.7106Q1442.5950244140624,77.6866,1442.9050244140626,77.6866Q1443.2150244140626,77.6866,1443.5250244140625,77.7106Q1443.8340244140625,77.7347,1444.1410244140625,77.7826Q1444.4470244140625,77.8306,1444.7490244140624,77.9021Q1445.0510244140626,77.97370000000001,1445.3470244140626,78.0684Q1445.6420244140625,78.1631,1445.9300244140625,78.2805Q1446.2170244140625,78.3978,1446.4940244140626,78.5371Q1446.7720244140626,78.6763,1447.0380244140624,78.8366Q1447.3030244140625,78.9969,1447.5560244140624,79.1774Q1447.8080244140624,79.3578,1448.0460244140625,79.5572Q1448.2840244140625,79.7567,1448.5050244140625,79.9739Q1448.7270244140625,80.1912,1448.9310244140624,80.425Q1449.1350244140626,80.6588,1449.3210244140625,80.9077Q1449.5060244140625,81.1565,1449.6720244140624,81.419Q1449.8370244140624,81.6816,1449.9820244140624,81.95609999999999Q1450.1270244140626,82.2306,1450.2500244140624,82.5156Q1450.3730244140625,82.8005,1450.4730244140626,83.0941L1580.0100244140626,461.251Z" transform="matrix(0.5,0.8660253882408142,-0.8660253286361694,0.5000001192092896,693.0275572538376,-1078.3589355185031)" fill="url(#master_svg0_193_9265)" fill-opacity="1"/></g></g></g></svg>