<svg xmlns="http://www.w3.org/2000/svg" xmlns:xlink="http://www.w3.org/1999/xlink" fill="none" version="1.1" width="478.8860532675608" height="435.2986972403414" viewBox="0 0 478.8860532675608 435.2986972403414"><defs><linearGradient x1="0.8648862242698669" y1="0.8310357928276062" x2="0" y2="0.5" id="master_svg0_193_9265"><stop offset="0%" stop-color="#DCDCDC" stop-opacity="0.38999998569488525"/><stop offset="100.00002384185791%" stop-color="#EAEAEA" stop-opacity="0.3499999940395355"/></linearGradient></defs><path d="M615.9914016562327,383.564Q616.0684016562327,383.789,616.1324016562327,384.018Q616.1954016562327,384.247,616.2454016562326,384.479Q616.2954016562327,384.711,616.3314016562326,384.946Q616.3674016562327,385.181,616.3894016562326,385.418Q616.4114016562327,385.655,616.4184016562326,385.892Q616.4264016562327,386.13,616.4204016562327,386.367Q616.4144016562327,386.605,616.3934016562326,386.842Q616.3734016562327,387.078,616.3394016562327,387.314Q616.3044016562326,387.549,616.2564016562326,387.782Q616.2084016562326,388.014,616.1464016562327,388.244Q616.0844016562327,388.473,616.0084016562326,388.698Q615.9334016562327,388.924,615.8444016562327,389.144Q615.7554016562326,389.365,615.6534016562326,389.58Q615.5524016562326,389.794,615.4374016562326,390.003Q615.3234016562326,390.211,615.1974016562326,390.412Q615.0704016562327,390.614,614.9324016562327,390.807Q614.7944016562326,391,614.6444016562327,391.185Q614.4954016562326,391.37,614.3354016562326,391.546Q614.1754016562327,391.721,614.0044016562326,391.887Q613.8344016562327,392.053,613.6544016562327,392.208Q613.4754016562326,392.364,613.2864016562327,392.508Q613.0974016562327,392.653,612.9004016562326,392.786Q612.7034016562327,392.919,612.4994016562326,393.04Q612.2944016562326,393.161,612.0834016562326,393.27Q611.8724016562327,393.378,611.6544016562327,393.474Q611.4374016562326,393.571,611.2144016562327,393.653Q610.9914016562327,393.736,610.7644016562326,393.806Q610.5374016562326,393.875,610.3064016562327,393.931Q610.0754016562327,393.987,609.8414016562326,394.029Q609.6074016562327,394.072,609.3714016562326,394.1Q609.1354016562327,394.128,608.8984016562326,394.142Q608.6604016562326,394.156,608.4234016562327,394.156L349.34940165623266,394.156Q349.11170165623264,394.156,348.87439165623266,394.142Q348.63721165623264,394.128,348.4012216562327,394.1Q348.1652016562327,394.072,347.93131165623265,394.029Q347.6974216562327,393.987,347.4664016562327,393.931Q347.23542165623263,393.875,347.0081216562327,393.806Q346.78092165623264,393.736,346.55811165623265,393.653Q346.33542165623265,393.571,346.11802165623266,393.475Q345.9005216562327,393.378,345.68921165623266,393.27Q345.47791165623266,393.161,345.27341165623267,393.04Q345.0689116562327,392.919,344.87192165623264,392.786Q344.67490165623263,392.653,344.4862116562327,392.508Q344.2975216562327,392.364,344.11771165623264,392.208Q343.93790165623267,392.053,343.76761165623265,391.887Q343.59742165623265,391.721,343.43732165623265,391.546Q343.2771016562327,391.37,343.12772165623267,391.185Q342.9783116562327,391,342.84012165623267,390.807Q342.70200165623265,390.614,342.57550165623263,390.412Q342.44910165623264,390.211,342.33481465623265,390.003Q342.22052565623267,389.794,342.11881065623265,389.58Q342.01709565623264,389.365,341.92831965623265,389.144Q341.83960565623266,388.924,341.76401365623263,388.698Q341.68851265623266,388.473,341.6265016562327,388.244Q341.5645196562327,388.014,341.51621065623266,387.781Q341.46790165623264,387.549,341.43350805623265,387.314Q341.39920635623264,387.078,341.37882055623265,386.842Q341.35840434623265,386.605,341.35220927623266,386.367Q341.34592265623263,386.13,341.35370463623264,385.892Q341.36160865623265,385.655,341.3835203562327,385.418Q341.40540145623265,385.181,341.4414121562327,384.946Q341.47730065623267,384.711,341.52719665623266,384.479Q341.57700165623265,384.247,341.64050865623267,384.018Q341.7041076562327,383.789,341.78110365623263,383.564L471.31840165623265,5.4075Q471.4184016562326,5.1139,471.54140165623267,4.829Q471.66440165623266,4.544,471.8094016562327,4.2695Q471.9544016562327,3.995,472.11940165623264,3.7324Q472.2854016562327,3.4699,472.47040165623264,3.2211Q472.6564016562327,2.9722,472.8604016562326,2.7384Q473.0644016562327,2.5046,473.28640165623267,2.2873Q473.5074016562327,2.0701,473.7454016562326,1.8706Q473.9834016562327,1.6712,474.2354016562326,1.4908Q474.48840165623267,1.3103,474.75340165623265,1.15Q475.0194016562326,0.9897,475.29740165623264,0.8505Q475.5744016562327,0.711201,475.86140165623266,0.593901Q476.14940165623267,0.4765,476.4444016562327,0.3818Q476.7404016562326,0.2871,477.04240165623264,0.2155Q477.34440165623266,0.144001,477.65040165623265,0.0960007Q477.95740165623266,0.0480995,478.2664016562327,0.0240002Q478.57640165623263,0,478.8864016562327,0Q479.19640165623264,0,479.5064016562327,0.0240002Q479.81540165623267,0.0480995,480.1224016562327,0.0960007Q480.42840165623267,0.144001,480.73040165623263,0.2155Q481.03240165623265,0.2871,481.3284016562327,0.3818Q481.62340165623266,0.4765,481.91140165623267,0.593901Q482.19840165623265,0.711201,482.47540165623263,0.8505Q482.75340165623265,0.9897,483.0194016562326,1.15Q483.28440165623266,1.3103,483.53740165623265,1.4908Q483.78940165623266,1.6712,484.02740165623266,1.8706Q484.26540165623265,2.0701,484.48640165623266,2.2873Q484.7084016562327,2.5046,484.91240165623265,2.7384Q485.11640165623265,2.9722,485.30240165623263,3.2211Q485.4874016562327,3.4699,485.65340165623263,3.7324Q485.81840165623265,3.995,485.9634016562327,4.2695Q486.1084016562327,4.544,486.23140165623266,4.829Q486.35440165623265,5.1139,486.4544016562327,5.4075L615.9914016562327,383.564Z" transform="matrix(0.5,0.8660253882408142,-0.8660253286361694,0.5000001192092896,170.67470082811633,-295.6172480951085)" fill="url(#master_svg0_193_9265)" fill-opacity="1"/></svg>