<svg xmlns="http://www.w3.org/2000/svg" xmlns:xlink="http://www.w3.org/1999/xlink" fill="none" version="1.1" width="1335.970703125" height="555" viewBox="0 0 1335.970703125 555"><defs><linearGradient x1="0.8648862242698669" y1="0.8310357928276062" x2="0" y2="0.5" id="master_svg0_193_9265"><stop offset="0%" stop-color="#DCDCDC" stop-opacity="0.38999998569488525"/><stop offset="100.00002384185791%" stop-color="#EAEAEA" stop-opacity="0.3499999940395355"/></linearGradient></defs><g style="mix-blend-mode:passthrough"><g><g style="mix-blend-mode:passthrough"><path d="M1500.0108789062501,461.251Q1500.08787890625,461.476,1500.15187890625,461.705Q1500.21487890625,461.934,1500.26487890625,462.166Q1500.31487890625,462.398,1500.35087890625,462.633Q1500.3868789062499,462.868,1500.40887890625,463.105Q1500.43087890625,463.342,1500.43787890625,463.579Q1500.44587890625,463.817,1500.43987890625,464.054Q1500.43387890625,464.292,1500.41287890625,464.529Q1500.39287890625,464.765,1500.35887890625,465.001Q1500.32387890625,465.236,1500.27587890625,465.469Q1500.22787890625,465.701,1500.1658789062499,465.931Q1500.10387890625,466.16,1500.02787890625,466.385Q1499.9528789062501,466.611,1499.86387890625,466.831Q1499.77487890625,467.052,1499.67287890625,467.267Q1499.57187890625,467.481,1499.45687890625,467.69Q1499.34287890625,467.898,1499.21687890625,468.099Q1499.08987890625,468.301,1498.95187890625,468.494Q1498.81387890625,468.687,1498.66387890625,468.872Q1498.51487890625,469.057,1498.35487890625,469.233Q1498.1948789062499,469.408,1498.02387890625,469.574Q1497.85387890625,469.74,1497.6738789062501,469.895Q1497.49487890625,470.051,1497.30587890625,470.195Q1497.11687890625,470.34,1496.91987890625,470.473Q1496.7228789062501,470.606,1496.51887890625,470.727Q1496.31387890625,470.848,1496.10287890625,470.957Q1495.89187890625,471.065,1495.6738789062501,471.161Q1495.45687890625,471.258,1495.23387890625,471.34Q1495.0108789062501,471.423,1494.78387890625,471.493Q1494.55687890625,471.562,1494.32587890625,471.618Q1494.09487890625,471.674,1493.86087890625,471.716Q1493.62687890625,471.759,1493.39087890625,471.787Q1493.15487890625,471.815,1492.91787890625,471.829Q1492.67987890625,471.843,1492.44287890625,471.843L1233.36917890625,471.843Q1233.13147890625,471.843,1232.89417890625,471.829Q1232.65697890625,471.815,1232.42097890625,471.787Q1232.18497890625,471.759,1231.95107890625,471.716Q1231.71717890625,471.674,1231.48617890625,471.618Q1231.25517890625,471.562,1231.02787890625,471.493Q1230.80067890625,471.423,1230.57787890625,471.34Q1230.35517890625,471.258,1230.13777890625,471.162Q1229.92027890625,471.065,1229.70897890625,470.957Q1229.49767890625,470.848,1229.29317890625,470.727Q1229.08867890625,470.606,1228.89167890625,470.473Q1228.69467890625,470.34,1228.50597890625,470.195Q1228.31727890625,470.051,1228.13747890625,469.895Q1227.95767890625,469.74,1227.78737890625,469.574Q1227.61717890625,469.408,1227.45707890625,469.233Q1227.29687890625,469.057,1227.14747890625,468.872Q1226.99807890625,468.687,1226.85987890625,468.494Q1226.72177890625,468.301,1226.59527890625,468.099Q1226.46887890625,467.898,1226.35457890625,467.69Q1226.24027890625,467.481,1226.13857890625,467.267Q1226.03687890625,467.052,1225.94807890625,466.831Q1225.85937890625,466.611,1225.78377890625,466.385Q1225.70827890625,466.16,1225.64627890625,465.931Q1225.58427890625,465.701,1225.53597890625,465.468Q1225.48767890625,465.236,1225.45327890625,465.001Q1225.41897890625,464.765,1225.39857890625,464.529Q1225.37817890625,464.292,1225.37197890625,464.054Q1225.36567890625,463.817,1225.37347890625,463.579Q1225.38137890625,463.342,1225.40327890625,463.105Q1225.42517890625,462.868,1225.46117890625,462.633Q1225.49707890625,462.398,1225.54697890625,462.166Q1225.59677890625,461.934,1225.66027890625,461.705Q1225.72387890625,461.476,1225.80087890625,461.251L1355.33787890625,83.0941Q1355.43787890625,82.8005,1355.56087890625,82.5156Q1355.68387890625,82.2306,1355.8288789062499,81.95609999999999Q1355.97387890625,81.6816,1356.13887890625,81.419Q1356.30487890625,81.1565,1356.48987890625,80.9077Q1356.67587890625,80.6588,1356.87987890625,80.425Q1357.08387890625,80.1912,1357.30587890625,79.9739Q1357.52687890625,79.7567,1357.76487890625,79.5572Q1358.00287890625,79.3578,1358.25487890625,79.1774Q1358.50787890625,78.9969,1358.77287890625,78.8366Q1359.03887890625,78.6763,1359.31687890625,78.5371Q1359.59387890625,78.3978,1359.88087890625,78.2805Q1360.16887890625,78.1631,1360.46387890625,78.0684Q1360.75987890625,77.97370000000001,1361.06187890625,77.9021Q1361.36387890625,77.8306,1361.66987890625,77.7826Q1361.97687890625,77.7347,1362.28587890625,77.7106Q1362.59587890625,77.6866,1362.90587890625,77.6866Q1363.21587890625,77.6866,1363.52587890625,77.7106Q1363.83487890625,77.7347,1364.14187890625,77.7826Q1364.44787890625,77.8306,1364.74987890625,77.9021Q1365.05187890625,77.97370000000001,1365.3478789062501,78.0684Q1365.64287890625,78.1631,1365.93087890625,78.2805Q1366.21787890625,78.3978,1366.49487890625,78.5371Q1366.77287890625,78.6763,1367.03887890625,78.8366Q1367.30387890625,78.9969,1367.55687890625,79.1774Q1367.80887890625,79.3578,1368.04687890625,79.5572Q1368.28487890625,79.7567,1368.50587890625,79.9739Q1368.72787890625,80.1912,1368.93187890625,80.425Q1369.1358789062501,80.6588,1369.32187890625,80.9077Q1369.50687890625,81.1565,1369.67287890625,81.419Q1369.83787890625,81.6816,1369.9828789062499,81.95609999999999Q1370.12787890625,82.2306,1370.25087890625,82.5156Q1370.37387890625,82.8005,1370.47387890625,83.0941L1500.0108789062501,461.251Z" transform="matrix(0.5,0.8660253882408142,-0.8660253286361694,0.5000001192092896,653.0279844999313,-1009.0776444711664)" fill="url(#master_svg0_193_9265)" fill-opacity="1"/></g></g></g></svg>