<svg xmlns="http://www.w3.org/2000/svg" xmlns:xlink="http://www.w3.org/1999/xlink" fill="none" version="1.1" width="1920" height="533" viewBox="0 0 1920 533"><defs><linearGradient x1="0.8648862242698669" y1="0.8310357928276062" x2="0" y2="0.5" id="master_svg0_193_9265"><stop offset="0%" stop-color="#DCDCDC" stop-opacity="0.38999998569488525"/><stop offset="100.00002384185791%" stop-color="#EAEAEA" stop-opacity="0.3499999940395355"/></linearGradient></defs><g style="mix-blend-mode:passthrough"><rect x="0" y="0" width="1920" height="533" rx="0" fill="#FAFAFC" fill-opacity="1"/><g><g style="mix-blend-mode:passthrough"><path d="M1859.6100000000001,451.251Q1859.687,451.476,1859.751,451.705Q1859.814,451.934,1859.864,452.166Q1859.914,452.398,1859.95,452.633Q1859.9859999999999,452.868,1860.008,453.105Q1860.03,453.342,1860.037,453.579Q1860.045,453.817,1860.039,454.054Q1860.033,454.292,1860.012,454.529Q1859.992,454.765,1859.958,455.001Q1859.923,455.236,1859.875,455.469Q1859.827,455.701,1859.7649999999999,455.931Q1859.703,456.16,1859.627,456.385Q1859.5520000000001,456.611,1859.463,456.831Q1859.374,457.052,1859.272,457.267Q1859.171,457.481,1859.056,457.69Q1858.942,457.898,1858.816,458.099Q1858.689,458.301,1858.551,458.494Q1858.413,458.687,1858.263,458.872Q1858.114,459.057,1857.954,459.233Q1857.7939999999999,459.408,1857.623,459.574Q1857.453,459.74,1857.2730000000001,459.895Q1857.094,460.051,1856.905,460.195Q1856.716,460.34,1856.519,460.473Q1856.3220000000001,460.606,1856.118,460.727Q1855.913,460.848,1855.702,460.957Q1855.491,461.065,1855.2730000000001,461.161Q1855.056,461.258,1854.833,461.34Q1854.6100000000001,461.423,1854.383,461.493Q1854.156,461.562,1853.925,461.618Q1853.694,461.674,1853.46,461.716Q1853.226,461.759,1852.99,461.787Q1852.754,461.815,1852.517,461.829Q1852.279,461.843,1852.042,461.843L1592.9683,461.843Q1592.7306,461.843,1592.4933,461.829Q1592.2561,461.815,1592.0201,461.787Q1591.7841,461.759,1591.5502,461.716Q1591.3163,461.674,1591.0853,461.618Q1590.8543,461.562,1590.627,461.493Q1590.3998,461.423,1590.177,461.34Q1589.9543,461.258,1589.7369,461.162Q1589.5194,461.065,1589.3081,460.957Q1589.0968,460.848,1588.8923,460.727Q1588.6878,460.606,1588.4908,460.473Q1588.2938,460.34,1588.1051,460.195Q1587.9164,460.051,1587.7366,459.895Q1587.5568,459.74,1587.3865,459.574Q1587.2163,459.408,1587.0562,459.233Q1586.896,459.057,1586.7466,458.872Q1586.5972,458.687,1586.459,458.494Q1586.3209,458.301,1586.1944,458.099Q1586.068,457.898,1585.9537,457.69Q1585.8394,457.481,1585.7377,457.267Q1585.636,457.052,1585.5472,456.831Q1585.4585,456.611,1585.3829,456.385Q1585.3074,456.16,1585.2454,455.931Q1585.1834,455.701,1585.1351,455.468Q1585.0868,455.236,1585.0524,455.001Q1585.0181,454.765,1584.9977,454.529Q1584.9773,454.292,1584.9711,454.054Q1584.9648,453.817,1584.9726,453.579Q1584.9805,453.342,1585.0024,453.105Q1585.0243,452.868,1585.0603,452.633Q1585.0962,452.398,1585.1461,452.166Q1585.1959,451.934,1585.2594,451.705Q1585.323,451.476,1585.4,451.251L1714.937,73.0941Q1715.037,72.8005,1715.16,72.5156Q1715.283,72.2306,1715.4279999999999,71.95609999999999Q1715.573,71.6816,1715.738,71.419Q1715.904,71.1565,1716.089,70.9077Q1716.275,70.6588,1716.479,70.425Q1716.683,70.1912,1716.905,69.9739Q1717.126,69.7567,1717.364,69.5572Q1717.602,69.3578,1717.854,69.1774Q1718.107,68.9969,1718.372,68.8366Q1718.638,68.6763,1718.916,68.5371Q1719.193,68.3978,1719.48,68.2805Q1719.768,68.1631,1720.063,68.0684Q1720.359,67.97370000000001,1720.661,67.9021Q1720.963,67.8306,1721.269,67.7826Q1721.576,67.7347,1721.885,67.7106Q1722.195,67.6866,1722.505,67.6866Q1722.815,67.6866,1723.125,67.7106Q1723.434,67.7347,1723.741,67.7826Q1724.047,67.8306,1724.349,67.9021Q1724.651,67.97370000000001,1724.9470000000001,68.0684Q1725.242,68.1631,1725.53,68.2805Q1725.817,68.3978,1726.094,68.5371Q1726.372,68.6763,1726.638,68.8366Q1726.903,68.9969,1727.156,69.1774Q1727.408,69.3578,1727.646,69.5572Q1727.884,69.7567,1728.105,69.9739Q1728.327,70.1912,1728.531,70.425Q1728.7350000000001,70.6588,1728.921,70.9077Q1729.106,71.1565,1729.272,71.419Q1729.437,71.6816,1729.5819999999999,71.95609999999999Q1729.727,72.2306,1729.85,72.5156Q1729.973,72.8005,1730.073,73.0941L1859.6100000000001,451.251Z" transform="matrix(0.5,0.8660253882408142,-0.8660253286361694,0.5000001192092896,824.1672917604446,-1325.499611735344)" fill="url(#master_svg0_193_9265)" fill-opacity="1"/></g></g></g></svg>